<?xml version="1.0" encoding="UTF-8"?>
<svg xmlns="http://www.w3.org/2000/svg" xmlns:xlink="http://www.w3.org/1999/xlink" width="10pt" height="10pt" viewBox="0 0 10 10" version="1.1">
<g id="surface1">
<path style=" stroke:none;fill-rule:nonzero;fill:rgb(0%,0%,0%);fill-opacity:1;" d="M 3.601562 0.613281 L 3.601562 1.226562 L 1.375 1.226562 L 1.375 2.300781 L 1.671875 2.300781 C 1.996094 2.300781 2.09375 2.328125 2.183594 2.457031 C 2.238281 2.527344 2.238281 2.539062 2.238281 5 C 2.238281 7.460938 2.238281 7.472656 2.183594 7.542969 C 2.09375 7.671875 1.996094 7.699219 1.671875 7.699219 L 1.375 7.699219 L 1.375 8.773438 L 3.601562 8.773438 L 3.601562 10 L 4.675781 10 L 4.675781 8.773438 L 5.324219 8.773438 L 5.324219 10 L 6.398438 10 L 6.398438 8.707031 L 6.601562 8.675781 C 7.632812 8.519531 8.363281 7.921875 8.589844 7.050781 C 8.636719 6.863281 8.636719 6.386719 8.585938 6.175781 C 8.519531 5.90625 8.363281 5.621094 8.171875 5.414062 C 7.910156 5.136719 7.636719 4.976562 7.171875 4.839844 C 7.054688 4.804688 6.980469 4.777344 7 4.777344 C 7.023438 4.773438 7.167969 4.710938 7.324219 4.636719 C 7.574219 4.511719 7.636719 4.46875 7.835938 4.265625 C 8.027344 4.078125 8.085938 4 8.171875 3.824219 C 8.226562 3.707031 8.292969 3.546875 8.3125 3.460938 C 8.363281 3.269531 8.359375 2.851562 8.3125 2.664062 C 8.121094 1.929688 7.449219 1.414062 6.53125 1.289062 L 6.398438 1.269531 L 6.398438 0 L 5.324219 0 L 5.324219 1.226562 L 4.675781 1.226562 L 4.675781 0 L 3.601562 0 Z M 5.757812 2.511719 C 6.101562 2.574219 6.300781 2.707031 6.421875 2.957031 C 6.636719 3.40625 6.472656 3.886719 6.03125 4.109375 C 5.789062 4.234375 5.59375 4.257812 4.832031 4.269531 L 4.125 4.28125 L 4.125 2.441406 L 4.84375 2.460938 C 5.273438 2.46875 5.640625 2.488281 5.757812 2.511719 Z M 5.828125 5.457031 C 6.3125 5.570312 6.585938 5.84375 6.648438 6.273438 C 6.691406 6.617188 6.597656 6.925781 6.371094 7.164062 C 6.203125 7.339844 6.085938 7.410156 5.835938 7.480469 C 5.65625 7.527344 5.574219 7.53125 4.945312 7.535156 C 4.144531 7.539062 4.175781 7.546875 4.148438 7.308594 C 4.136719 7.226562 4.128906 6.765625 4.128906 6.277344 L 4.125 5.394531 L 4.894531 5.40625 C 5.457031 5.417969 5.707031 5.429688 5.828125 5.457031 Z M 5.828125 5.457031 "/>
</g>
</svg>
